<svg xmlns="http://www.w3.org/2000/svg" viewBox="0 0 1012.94 1012.94"><defs><style>.cls-1{fill:#1d1d1b;}</style></defs><title>Ресурс 191</title><g id="Слой_2" data-name="Слой 2"><g id="Слой_1-2" data-name="Слой 1"><path class="cls-1" d="M506.47,174.68a331.79,331.79,0,1,1-234.61,97.18,330.76,330.76,0,0,1,234.61-97.18Zm253,331.79A14.71,14.71,0,0,1,763.82,496l0,0a14.73,14.73,0,0,1,20.85,0l0,0a14.73,14.73,0,0,1,0,20.85l0,0a14.73,14.73,0,0,1-20.85,0l0,0a14.71,14.71,0,0,1-4.32-10.43Zm-535.58,0A14.71,14.71,0,0,1,228.24,496l0,0a14.73,14.73,0,0,1,20.85,0l0,0a14.73,14.73,0,0,1,0,20.85l0,0a14.73,14.73,0,0,1-20.85,0l0,0a14.71,14.71,0,0,1-4.32-10.43Zm282.56,253a14.71,14.71,0,0,1,10.43,4.32l0,0a14.73,14.73,0,0,1,0,20.85l0,0a14.73,14.73,0,0,1-20.85,0l0,0a14.73,14.73,0,0,1,0-20.85l0,0a14.71,14.71,0,0,1,10.43-4.32Zm0-535.58a14.71,14.71,0,0,1,10.43,4.32l0,0a14.73,14.73,0,0,1,0,20.85l0,0a14.73,14.73,0,0,1-20.85,0l0,0a14.73,14.73,0,0,1,0-20.85l0,0a14.71,14.71,0,0,1,10.43-4.32ZM578.7,448.17l-58.3,58.3,58.3,58.3V448.17ZM506.47,520.4l-58.3,58.3h116.6l-58.3-58.3Zm-72.23,44.37,58.3-58.3-58.3-58.3v116.6Zm72.23-72.23,58.3-58.3H448.17l58.3,58.3ZM698.28,684.36a9.85,9.85,0,0,1-13.93,13.93L643,656.88A9.85,9.85,0,1,1,656.88,643l41.4,41.4Zm-13.93-369.7a9.85,9.85,0,1,1,13.93,13.93L656.88,370A9.85,9.85,0,0,1,643,356.06l41.4-41.4ZM328.58,698.28a9.85,9.85,0,0,1-13.93-13.93l41.4-41.4A9.85,9.85,0,1,1,370,656.88l-41.4,41.4Zm-13.93-369.7a9.85,9.85,0,1,1,13.93-13.93l41.4,41.4A9.85,9.85,0,1,1,356.06,370l-41.4-41.4Zm-61.37,253,75.11-75.11-75.11-75.11a9.85,9.85,0,0,1,7-16.81h154.3V260.25a9.85,9.85,0,0,1,16.81-7l75.11,75.11,75.11-75.11a9.85,9.85,0,0,1,16.81,7v154.3h154.3a9.85,9.85,0,0,1,7,16.81l-75.11,75.11,75.11,75.11a9.85,9.85,0,0,1-7,16.81H598.39v154.3h0a9.85,9.85,0,0,1-16.81,7l-75.11-75.11-75.11,75.11a9.85,9.85,0,0,1-16.81-7h0V598.39H260.25a9.85,9.85,0,0,1-7-16.81Zm311.49,16.81H448.17l58.3,58.3,58.3-58.3Zm-222.45-78L284,578.7h116.6l-58.3-58.3Zm270,58.3h116.6l-58.3-58.3-58.3,58.3ZM284,434.25l58.3,58.3,58.3-58.3Zm386.6,58.3,58.3-58.3H612.32l58.3,58.3Zm-222.45-78h116.6l-58.3-58.3-58.3,58.3Zm72.23-72.23,58.3,58.3V284l-58.3,58.3Zm58.3,270-58.3,58.3,58.3,58.3V612.32ZM414.55,564.77V448.17l-58.3,58.3,58.3,58.3Zm242.15-58.3-58.3-58.3v116.6l58.3-58.3ZM492.54,342.32,434.24,284v116.6l58.3-58.3Zm-58.3,270v116.6l58.3-58.3-58.3-58.3ZM128.34,661c-1.79,7.59-6.56,13-14.18,15.82C101.25,681.59,89.3,674,84.9,661.53L63.71,601.36a3.72,3.72,0,0,1,2.19-4.57L136.16,572a3.72,3.72,0,0,1,4.57,2.19L162,634.53c2.13,6,2.13,13.13-.79,18.92a21.56,21.56,0,0,1-12.41,10.45,22.42,22.42,0,0,1-12.78.69,21.34,21.34,0,0,1-7.65-3.58ZM187.07,776.5l-20.88-26c-1.66-2.07-2.11-4.17-.47-6.45l25.44-37a3.12,3.12,0,0,1,5.06-.06l7.83,9.76c1.66,2.07,2.1,4.17.45,6.47l-16.66,23.28,17.38,21.65L230.9,756.2c2.55-1.26,4.67-.23,6.3,1.81l7.83,9.75a3.06,3.06,0,0,1-1.18,4.94L188.7,797c-5.31,2.34-11.25,4-17,2.59C166.72,798.4,162.14,795,159,791l-17.58-21.89a3.73,3.73,0,0,1,.55-5l9.54-7.66a3.72,3.72,0,0,1,5,.55l15.23,19c1.12,1.4,3.25,3.36,5.1,3.75a7.63,7.63,0,0,0,5.22-.89l5-2.32Zm106.77,106,5,3.57a3.73,3.73,0,0,1,.84,5l-13.2,18.48a3.73,3.73,0,0,1-5,.84l-11.54-8.24a3.73,3.73,0,0,1-.83-5l4-5.61-45.28-32.34-4,5.61a3.73,3.73,0,0,1-5,.84l-11.53-8.24a3.73,3.73,0,0,1-.84-5l13.2-18.48a3.73,3.73,0,0,1,5-.83l3.7,2.64,45.31-38.86a5.37,5.37,0,0,1,7-.32l46.48,33.2a3.73,3.73,0,0,1,.84,5l-34.1,47.75Zm137.89,20.36-33.85,36.3a4.81,4.81,0,0,1-5.3,1.63l-10.44-2.91a4.77,4.77,0,0,1-3.69-4.11L368.2,885.17,356.56,927a3.72,3.72,0,0,1-4.42,2.49L339.42,926a3.72,3.72,0,0,1-2.49-4.42l20-71.77a3.72,3.72,0,0,1,4.42-2.49L378.18,852a5.44,5.44,0,0,1,3.84,4.58l12.31,57.66,40.3-43a5.48,5.48,0,0,1,5.67-2L457.18,874a3.72,3.72,0,0,1,2.49,4.42l-20,71.77a3.72,3.72,0,0,1-4.42,2.49l-12.72-3.54a3.72,3.72,0,0,1-2.49-4.42l11.64-41.86Zm109.51.57,4.66-27.92c.41-2.84,2.43-4,5-4.18l12.47-.95a3.07,3.07,0,0,1,3.41,3.76l-11.1,59.25c-1.07,5.73-3,11.53-7.49,15.53-3.79,3.39-9.21,5.22-14.23,5.61l-28,2.13a3.72,3.72,0,0,1-3.85-3.3l-.93-12.2a3.72,3.72,0,0,1,3.3-3.85l24.25-1.85c1.79-.14,4.61-.79,6-2.09a7.61,7.61,0,0,0,2.21-4.81l.9-5.42-33.25,2.53c-2.65.2-4.63-.6-5.59-3.25L482.86,880.5a3.12,3.12,0,0,1,2.81-4.21l12.47-1c2.65-.2,4.62.6,5.6,3.28l9.8,26.9,27.69-2.11Zm89,4.95,9.68,24.3a3.73,3.73,0,0,1-2,4.66l-12.52,5a3.72,3.72,0,0,1-4.66-2l-27.56-69.21a3.72,3.72,0,0,1,2-4.66l56.68-22.58a26.36,26.36,0,0,1,19.13-.1A26.81,26.81,0,0,1,685,879a26.37,26.37,0,0,1-14,13.07l-40.83,16.26Zm116.73-99.14L783.65,855a3.73,3.73,0,0,1-.55,5l-10.73,8.61a3.73,3.73,0,0,1-5-.55l-36.73-45.76-24.19,19.42a3.73,3.73,0,0,1-5-.55l-7.66-9.54a3.72,3.72,0,0,1,.55-5L759,774.67a3.72,3.72,0,0,1,5,.55l7.66,9.54a3.72,3.72,0,0,1-.55,5l-24.19,19.42Zm97.19-92.9L856,785.2a6.53,6.53,0,0,1-1.12,5.43L848,800.08a3.72,3.72,0,0,1-5,.79L782.7,757.08a3.72,3.72,0,0,1-.79-5l7.92-10.91a3.73,3.73,0,0,1,5-.79L834.3,769l-11.85-68.88a6.54,6.54,0,0,1,1.12-5.43l6.86-9.44a3.73,3.73,0,0,1,5-.8l60.27,43.79a3.73,3.73,0,0,1,.79,5l-7.92,10.9a3.73,3.73,0,0,1-5,.8l-39.46-28.67Zm47.42-114.64,35.4,60.26a6.52,6.52,0,0,1,.87,5.48l-3.09,11.26a3.72,3.72,0,0,1-4.41,2.51l-71.84-19.7a3.72,3.72,0,0,1-2.51-4.41l3.57-13a3.72,3.72,0,0,1,4.41-2.51l47,12.9-35.4-60.27a6.53,6.53,0,0,1-.87-5.48l3.09-11.26a3.72,3.72,0,0,1,4.41-2.51L944,594.65a3.72,3.72,0,0,1,2.51,4.41l-3.56,13a3.72,3.72,0,0,1-4.41,2.51l-47-12.89ZM98.74,607.12,87.68,611l14.23,40.4c1.14,3.23,3.94,5.71,7.49,4.46,3.77-1.33,4.55-5.57,3.34-9l-14-39.74Zm18.3-6.45L130.9,640c1.21,3.44,4.48,6.26,8.25,4.93,3.55-1.25,4.18-4.95,3-8.17l-14.09-40L117,600.67ZM277,870.48l24.91-34.88-23.17-16.55-33.1,29L277,870.48Zm346,19.85L661.51,875c3.7-1.47,5.42-4.88,3.92-8.62s-5.05-5-8.78-3.57l-38.5,15.34L623,890.33Zm-432.08-631,9.62-5.22c2.71-1.47,4.82,0,6.23,2.41a47.42,47.42,0,0,1,4.59,16.15c.94,9.75-1.78,19.18-6.94,27.44a44.82,44.82,0,0,1-25.06,19.56,42.57,42.57,0,0,1-54-34.65,44.81,44.81,0,0,1,7.32-30.94c5.38-8.17,12.73-14.53,22-17.76a47.41,47.41,0,0,1,16.67-2.56c2.67.29,4.92,1.57,4.71,4.65l-.73,10.92c-.19,2.87-1.49,4-4.22,3.89a27.36,27.36,0,0,0-10.4,1.41,23.58,23.58,0,0,0-11.75,9.44,24.56,24.56,0,0,0-3.24,18.8,24.36,24.36,0,0,0,27.11,17.38,24.54,24.54,0,0,0,15.73-10.79,23.58,23.58,0,0,0,3.67-14.62,27.36,27.36,0,0,0-3.06-10c-1.27-2.42-.76-4.08,1.77-5.46ZM298.7,177.76l4.83-3.8a3.73,3.73,0,0,1,5,.6l13.51,17.19a3.73,3.73,0,0,1-.6,5l-11.15,8.76a3.73,3.73,0,0,1-5-.6l-3.73-4.75L257.8,234.58l3.73,4.75a3.73,3.73,0,0,1-.6,5l-11.15,8.76a3.73,3.73,0,0,1-5-.6l-13.51-17.19a3.73,3.73,0,0,1,.6-5l3.58-2.81-24.58-54.4a5.4,5.4,0,0,1,1.65-6.77L257.41,131a3.72,3.72,0,0,1,5,.6l36.25,46.14Zm51.06-59.59,50.31-17a3.73,3.73,0,0,1,4.55,2.25L408.54,115a3.73,3.73,0,0,1-2.25,4.55l-50.31,17,3.76,11.11,63.08-21.34a3.72,3.72,0,0,1,4.55,2.25l3.92,11.58a3.73,3.73,0,0,1-2.24,4.55l-79.25,26.82a3.73,3.73,0,0,1-4.55-2.24L321.36,98.7a3.72,3.72,0,0,1,2.25-4.55l79.25-26.82a3.72,3.72,0,0,1,4.55,2.25l3.92,11.58a3.73,3.73,0,0,1-2.25,4.55L346,107.06l3.76,11.11Zm177.43-42-30.62.78L489,124.84c-.65,4.11-2.11,8.34-5.26,11.22-2.94,2.69-6.7,3.63-10.58,3.73l-11.53.29a3.73,3.73,0,0,1-3.68-3.5l-.31-12.23a3.72,3.72,0,0,1,3.49-3.68l4-.1a4.35,4.35,0,0,0,4.55-3.66L479,62a4.52,4.52,0,0,1,4.58-4.13l60.16-1.52a3.72,3.72,0,0,1,3.68,3.5l1.89,74.47a3.73,3.73,0,0,1-3.5,3.68l-13.48.34a3.73,3.73,0,0,1-3.68-3.5l-1.48-58.66Zm119.07,76.44-39.57-13.39-4.31,7.51a4.52,4.52,0,0,1-5.72,2.31l-13.17-4.46a3,3,0,0,1-2.18-2.35,4.39,4.39,0,0,1,.84-3l39-64A4.8,4.8,0,0,1,626.91,73l43.44,14.7A4.81,4.81,0,0,1,673.64,93l-7.89,74.47a4.41,4.41,0,0,1-1.17,2.93,3,3,0,0,1-3.16.54l-13.17-4.45a4.5,4.5,0,0,1-3.15-5.25l1.14-8.63Zm94.05,6.06,38.07,29.92,17-21.66a3.73,3.73,0,0,1,5-.6l10.6,8.33a3.72,3.72,0,0,1,.61,5l-46,58.57a3.73,3.73,0,0,1-5,.6L750,230.51a3.72,3.72,0,0,1-.6-5l17-21.66L728.31,173.9l-17,21.66a3.73,3.73,0,0,1-5,.6l-10.6-8.33a3.72,3.72,0,0,1-.6-5l46-58.57a3.72,3.72,0,0,1,5-.6l10.6,8.33a3.72,3.72,0,0,1,.6,5l-17,21.66Zm138.36,93.13c7,9.78,10.12,21.23,8.34,33.15a42.24,42.24,0,0,1-49.27,35c-11.85-2.24-21.61-9-28.57-18.76S799,280,800.82,268.05a42.25,42.25,0,0,1,49.27-35c11.85,2.24,21.61,9,28.57,18.77Zm-596.2-61.26L256,156.82l-22.38,17.59,18.56,39.92,30.3-23.81ZM648.83,133l4-30.68L632,95.23,616.54,122,648.83,133ZM863.07,262.86a23,23,0,0,0-14.66-9.67,24.89,24.89,0,0,0-28,19.92,24.29,24.29,0,0,0,19,26.66,24.89,24.89,0,0,0,28-19.92,23.08,23.08,0,0,0-4.32-17ZM506.47,0A506.48,506.48,0,1,1,148.34,148.34,504.89,504.89,0,0,1,506.47,0Zm344.2,162.27a486.78,486.78,0,1,0,142.57,344.2,485.25,485.25,0,0,0-142.57-344.2ZM727.16,285.79a312.1,312.1,0,1,0,91.41,220.68,311.12,311.12,0,0,0-91.41-220.68Z"/><path class="cls-1" d="M887.07,388.16a9.39,9.39,0,0,1,18-5.52,414.69,414.69,0,0,1,14,61.07,420.59,420.59,0,0,1,4.7,62.76,9.42,9.42,0,0,1-18.84,0,401.68,401.68,0,0,0-4.48-60,396,396,0,0,0-13.35-58.34ZM108,506.47a9.42,9.42,0,0,1-18.84,0,420.55,420.55,0,0,1,4.69-62.72,414.5,414.5,0,0,1,14-61,9.39,9.39,0,1,1,18,5.52,396,396,0,0,0-13.33,58.3A401.82,401.82,0,0,0,108,506.47Z"/></g></g></svg>