<svg xmlns="http://www.w3.org/2000/svg" viewBox="0 0 39.99 39.99"><defs><style>.cls-1{fill:#ed284a;}</style></defs><title>Ресурс 5</title><g id="Слой_2" data-name="Слой 2"><g id="Слой_1-2" data-name="Слой 1"><path class="cls-1" d="M20,3A1.52,1.52,0,0,0,21.07.44a1.52,1.52,0,1,0-2.15,2.15A1.51,1.51,0,0,0,20,3Z"/><path class="cls-1" d="M9.26,10.93a1.18,1.18,0,1,0,1.67-1.67L8.07,6.41A1.18,1.18,0,1,0,6.41,8.07Z"/><path class="cls-1" d="M3,20A1.52,1.52,0,0,0,.44,18.92a1.52,1.52,0,1,0,2.15,2.15A1.51,1.51,0,0,0,3,20Z"/><path class="cls-1" d="M29.89,11.28a1.17,1.17,0,0,0,.83-.35l2.86-2.86a1.18,1.18,0,0,0-1.67-1.67L29.06,9.26a1.18,1.18,0,0,0,.83,2Z"/><path class="cls-1" d="M39.54,18.92A1.52,1.52,0,1,0,40,20,1.51,1.51,0,0,0,39.54,18.92Z"/><path class="cls-1" d="M10.1,28.71a1.17,1.17,0,0,0-.83.35L6.41,31.91a1.18,1.18,0,0,0,1.67,1.67l2.86-2.86a1.18,1.18,0,0,0-.83-2Z"/><path class="cls-1" d="M30.73,29.06a1.18,1.18,0,0,0-1.67,1.67l2.86,2.86a1.18,1.18,0,0,0,1.67-1.67Z"/><path class="cls-1" d="M33,20l4.83-4.83a1.18,1.18,0,0,0-.83-2H26.84V3a1.18,1.18,0,0,0-2-.83L20,7,15.17,2.17a1.18,1.18,0,0,0-2,.83V13.15H3a1.18,1.18,0,0,0-.83,2L7,20,2.17,24.82a1.18,1.18,0,0,0,.83,2H13.15V37a1.18,1.18,0,0,0,2,.83L20,33l4.83,4.83a1.18,1.18,0,0,0,2-.83V26.84H37a1.18,1.18,0,0,0,.83-2Zm1.15-4.48-2.82,2.82L28.5,15.51ZM29.65,20l-2.81,2.82V17.18ZM28.5,24.48l2.82-2.81,2.82,2.81Zm-13,9.66V28.5l2.82,2.82Zm9-17v5.63L21.66,20Zm0,11.33v5.63l-2.81-2.82Zm-7.3-4L20,21.66l2.81,2.81Zm-1.67-13V5.85l2.82,2.81Zm7.3,4L20,18.33l-2.82-2.82Zm-5.63-2.36L20,10.34l2.81,2.82ZM18.33,20l-2.82,2.82V17.18Zm4.48,6.84L20,29.65l-2.82-2.81ZM21.66,8.67l2.81-2.81v5.63Zm-8.51,8.51v5.63L10.34,20Zm-1.67-1.67L8.67,18.33,5.85,15.51ZM8.67,21.66l2.82,2.81H5.85Z"/><path class="cls-1" d="M20,37a1.52,1.52,0,1,0,1.07.44A1.51,1.51,0,0,0,20,37Z"/></g></g></svg>