<svg xmlns="http://www.w3.org/2000/svg" viewBox="0 0 620.73 967.45"><defs><style>.cls-1{fill:#1d1d1b;}</style></defs><title>Ресурс 171</title><g id="Слой_2" data-name="Слой 2"><g id="Слой_1-2" data-name="Слой 1"><path class="cls-1" d="M239.18,382.81V497.73l57.46-57.46-57.46-57.46ZM296.64,116.7,239.18,59.24V174.16l57.46-57.46ZM458.42,278.49,401,221V335.95l57.46-57.46ZM219.77,335.95V221L162.3,278.49l57.46,57.46Zm161.78,46.87-57.46,57.46,57.46,57.46V382.81ZM324.09,116.7l57.46,57.46V59.24L324.09,116.7ZM252.9,187.89H367.82l-57.46-57.46L252.9,187.89Zm219.25,76.87,57.46-57.46H414.69l57.46,57.46Zm-381-57.46,57.46,57.46L206,207.3ZM414.69,349.67H529.61l-57.46-57.46-57.46,57.46ZM148.58,292.21,91.12,349.67H206l-57.46-57.46Zm219.25,76.87H252.9l57.46,57.46,57.46-57.46Zm-307-16.57,74-74-74-74a9.71,9.71,0,0,1,6.86-16.57H219.77V35.81a9.71,9.71,0,0,1,16.57-6.86l74,74,74-74A9.71,9.71,0,0,1,401,35.81V187.89H553a9.71,9.71,0,0,1,6.86,16.57l-74,74,74,74A9.7,9.7,0,0,1,553,369.08H401V521.16h0A9.7,9.7,0,0,1,384.39,528l-74-74-74,74a9.71,9.71,0,0,1-16.57-6.86h0V369.09H67.69a9.71,9.71,0,0,1-6.86-16.57Zm60.49-249.36A9.71,9.71,0,1,1,135,89.43l40.81,40.81A9.71,9.71,0,0,1,162.12,144l-40.81-40.81ZM135,467.54a9.71,9.71,0,0,1-13.73-13.73L162.12,413a9.71,9.71,0,1,1,13.73,13.73L135,467.54ZM485.69,89.43a9.71,9.71,0,1,1,13.73,13.73L458.61,144a9.71,9.71,0,0,1-13.73-13.73l40.81-40.81Zm13.73,364.38a9.71,9.71,0,0,1-13.73,13.73l-40.81-40.81A9.71,9.71,0,1,1,458.61,413l40.81,40.81ZM310.36,264.76l57.46-57.46H252.9l57.46,57.46Zm-71.19,71.19,57.46-57.46L239.18,221V335.95Zm71.19-43.73L252.9,349.67H367.82l-57.46-57.46ZM381.55,221l-57.46,57.46,57.46,57.46V221ZM310.36,0a14.5,14.5,0,0,1,10.28,4.26l0,0a14.52,14.52,0,0,1,0,20.55l0,0a14.52,14.52,0,0,1-20.55,0l0,0a14.52,14.52,0,0,1,0-20.55l0,0A14.5,14.5,0,0,1,310.36,0Zm0,527.87a14.5,14.5,0,0,1,10.28,4.26l0,0a14.52,14.52,0,0,1,0,20.55l0,0a14.52,14.52,0,0,1-20.55,0l0,0a14.52,14.52,0,0,1,0-20.55l0,0a14.49,14.49,0,0,1,10.28-4.26ZM31.88,278.49a14.5,14.5,0,0,1,4.26-10.28l0,0a14.52,14.52,0,0,1,20.55,0l0,0a14.52,14.52,0,0,1,0,20.55l0,0a14.52,14.52,0,0,1-20.55,0l0,0a14.5,14.5,0,0,1-4.26-10.28Zm527.87,0A14.49,14.49,0,0,1,564,268.21l0,0a14.52,14.52,0,0,1,20.55,0l0,0a14.52,14.52,0,0,1,0,20.55l0,0a14.52,14.52,0,0,1-20.55,0l0,0a14.5,14.5,0,0,1-4.26-10.28Z"/><path class="cls-1" d="M22.4,661.62H18.59v48.89H3V605.1H18.59V647h4l12-41.89h16.6l-15.84,49,19,56.36H37.17Z"/><path class="cls-1" d="M60.48,632.52a32.54,32.54,0,0,1,3.28-14.78A24.61,24.61,0,0,1,73,607.54a25.35,25.35,0,0,1,13.56-3.66,25.34,25.34,0,0,1,13.56,3.66,24.65,24.65,0,0,1,9.22,10.2,32.62,32.62,0,0,1,3.27,14.78v50.57a32.61,32.61,0,0,1-3.27,14.77,24.64,24.64,0,0,1-9.22,10.21,25.37,25.37,0,0,1-13.56,3.65A25.37,25.37,0,0,1,73,708.08a24.6,24.6,0,0,1-9.21-10.21,32.53,32.53,0,0,1-3.28-14.77Zm18.36,60.7a9.56,9.56,0,0,0,15.38,0Q97,689.34,97,682.63V633q0-6.7-2.82-10.59a9.56,9.56,0,0,0-15.38,0Q76,626.27,76,633v49.66Q76,689.34,78.84,693.22Z"/><path class="cls-1" d="M128.87,605.1h21.48a24.91,24.91,0,0,1,12.87,3.27,22.72,22.72,0,0,1,8.61,8.91,25.86,25.86,0,0,1,3,12.49v18.13a25.85,25.85,0,0,1-3,12.49,22.67,22.67,0,0,1-8.61,8.91,24.85,24.85,0,0,1-12.87,3.28h-5.94v37.93H128.87Zm21,52.86a8.75,8.75,0,0,0,7-2.82,11.36,11.36,0,0,0,2.44-7.69V630.24a11.37,11.37,0,0,0-2.44-7.69,8.76,8.76,0,0,0-7-2.82h-5.48V658Z"/><path class="cls-1" d="M238.24,710.51H222.71V619.73H205.34v90.78H189.8V605.1h48.44Z"/><path class="cls-1" d="M254.54,632.52a32.54,32.54,0,0,1,3.28-14.78,24.61,24.61,0,0,1,9.21-10.2,27,27,0,0,1,27.12,0,24.65,24.65,0,0,1,9.22,10.2,32.62,32.62,0,0,1,3.27,14.78v50.57a32.61,32.61,0,0,1-3.27,14.77,24.64,24.64,0,0,1-9.22,10.21,27,27,0,0,1-27.12,0,24.6,24.6,0,0,1-9.21-10.21,32.53,32.53,0,0,1-3.28-14.77Zm18.36,60.7a9.56,9.56,0,0,0,15.38,0q2.82-3.89,2.82-10.59V633q0-6.7-2.82-10.59a9.56,9.56,0,0,0-15.38,0q-2.82,3.88-2.82,10.59v49.66Q270.08,689.34,272.9,693.22Z"/><path class="cls-1" d="M322.93,605.1h21.48a24.91,24.91,0,0,1,12.87,3.27,22.72,22.72,0,0,1,8.61,8.91,25.86,25.86,0,0,1,3,12.49v18.13a25.85,25.85,0,0,1-3,12.49,22.67,22.67,0,0,1-8.61,8.91,24.85,24.85,0,0,1-12.87,3.28h-5.94v37.93H322.93ZM344,658a8.75,8.75,0,0,0,7-2.82,11.36,11.36,0,0,0,2.44-7.69V630.24a11.37,11.37,0,0,0-2.44-7.69,8.76,8.76,0,0,0-7-2.82h-5.48V658Z"/><path class="cls-1" d="M392.39,605.1H406.1L428,710.51h-16.3l-4.11-23.61H390.87l-4.11,23.61h-16.3Zm12.8,67.18-5.94-34.43-5.94,34.43Z"/><path class="cls-1" d="M437.63,605.1h15.54v90.79h17.37V605.1h15.54v90.79h7.77v29.7H478.31V710.51H437.63Z"/><path class="cls-1" d="M557.51,605.1V710.51H542V649.12l-22.09,61.39H506V605.1h15.54V666.8l22.09-61.69Z"/><path class="cls-1" d="M620.73,605.1V710.51H605.19V671.06h-4.26l-14,39.45H569.7l17.21-42a21.35,21.35,0,0,1-9.52-8.84A26,26,0,0,1,574,646.38v-16.6a25.83,25.83,0,0,1,3-12.49,22.72,22.72,0,0,1,8.61-8.91,24.91,24.91,0,0,1,12.87-3.27Zm-15.54,14.62h-6.24a8.76,8.76,0,0,0-7,2.82,11.36,11.36,0,0,0-2.44,7.69v15.69a11.35,11.35,0,0,0,2.44,7.69,8.75,8.75,0,0,0,7,2.82h6.24Z"/><path class="cls-1" d="M74,757H95.44a24.91,24.91,0,0,1,12.87,3.27,22.72,22.72,0,0,1,8.61,8.91,25.86,25.86,0,0,1,3,12.49v18.13a25.85,25.85,0,0,1-3,12.49,22.67,22.67,0,0,1-8.61,8.91,24.85,24.85,0,0,1-12.87,3.28H89.5v37.93H74ZM95,809.9a8.75,8.75,0,0,0,7-2.82,11.36,11.36,0,0,0,2.44-7.69V782.17a11.37,11.37,0,0,0-2.44-7.69,8.76,8.76,0,0,0-7-2.82H89.5V809.9Z"/><path class="cls-1" d="M143.42,757h13.71l21.94,105.41h-16.3l-4.11-23.61H141.9l-4.11,23.61h-16.3Zm12.8,67.18-5.94-34.43-5.94,34.43Z"/><path class="cls-1" d="M231.92,824.83V839a25.84,25.84,0,0,1-3,12.49,22.85,22.85,0,0,1-8.53,8.91,24.23,24.23,0,0,1-12.64,3.27q-11.28,0-17.67-7.84T183.64,835v-7.77h15.54v7.31q0,14.48,8.53,14.47a7.74,7.74,0,0,0,6.32-2.89,11.67,11.67,0,0,0,2.36-7.62V825.28a11.38,11.38,0,0,0-2.44-7.69,8.76,8.76,0,0,0-7-2.82h-9.75V800.15h8.53a8.75,8.75,0,0,0,7-2.82,11.36,11.36,0,0,0,2.44-7.69V781a12.81,12.81,0,0,0-2.06-7.69,6.68,6.68,0,0,0-5.71-2.82,6.25,6.25,0,0,0-5.86,3.5q-1.91,3.5-1.9,11v5.79H184.09v-6.24q0-12.8,6.17-20.72t17.14-7.92a22.81,22.81,0,0,1,12.19,3.28,22.12,22.12,0,0,1,8.23,8.91,27,27,0,0,1,2.89,12.49v9.6A19,19,0,0,1,228,800.61a15.84,15.84,0,0,1-7.77,6.24Q231.92,811.12,231.92,824.83Z"/><path class="cls-1" d="M295.29,825.13v12.64a25.85,25.85,0,0,1-3,12.49,22.67,22.67,0,0,1-8.61,8.91,24.88,24.88,0,0,1-12.87,3.27H246.85V757h21.63a24.91,24.91,0,0,1,12.87,3.27,22.72,22.72,0,0,1,8.61,8.91,25.86,25.86,0,0,1,3,12.49v8.68q0,6.55-2.74,10.66a14.72,14.72,0,0,1-7.16,5.79Q295.29,811.42,295.29,825.13Zm-32.9-53.47v28.79H268a8.76,8.76,0,0,0,7-2.82,11.36,11.36,0,0,0,2.44-7.69v-7.77a11.38,11.38,0,0,0-2.44-7.69,8.76,8.76,0,0,0-7-2.82Zm17.37,53.92a11.38,11.38,0,0,0-2.44-7.69,8.76,8.76,0,0,0-7-2.82h-7.92v32.75h7.92a8.75,8.75,0,0,0,7-2.82,11.37,11.37,0,0,0,2.44-7.69Z"/><path class="cls-1" d="M361.7,757V862.45H346.16V801.06l-22.09,61.39H310.21V757h15.54v61.69L347.84,757Z"/><path class="cls-1" d="M373.12,757H423.7v14.62H406.18v90.78H390.64V771.66H373.12Z"/><path class="cls-1" d="M486.61,757V862.45H471.07V801.06L449,862.45H435.12V757h15.54v61.69L472.74,757Z"/><path class="cls-1" d="M549.82,757V862.45H534.28V823H530l-14,39.45H498.79l17.21-42a21.35,21.35,0,0,1-9.52-8.84,26,26,0,0,1-3.43-13.25v-16.6a25.83,25.83,0,0,1,3-12.49,22.72,22.72,0,0,1,8.61-8.91A24.91,24.91,0,0,1,527.58,757Zm-15.54,14.62H528a8.76,8.76,0,0,0-7,2.82,11.36,11.36,0,0,0-2.44,7.69v15.69a11.35,11.35,0,0,0,2.44,7.69,8.75,8.75,0,0,0,7,2.82h6.24Z"/><path class="cls-1" d="M27.62,909,14.25,960.14H6.35l4.14-15.73L0,909H8L14,932l5.69-23Z"/><path class="cls-1" d="M57.16,953.05v14.4H49.63v-7.31H33v7.31H25.48v-14.4h3a14.18,14.18,0,0,0,1.77-5.76q1-6.5,1.77-17.72T32.86,909H53.4v44Zm-11.3,0V916.12H39.73q-.44,9.3-1.18,18.46t-1.4,14A17.36,17.36,0,0,1,36,953.05Z"/><path class="cls-1" d="M95.86,909v51.11H88.33V931l-7.24,21.49H77.84L70.6,931v29.17H63.07V909h6.72l9.67,29.32L89.14,909Z"/><path class="cls-1" d="M128.13,909l-13.37,51.11h-7.9L111,944.41,100.51,909h8l6.06,23,5.69-23Z"/><path class="cls-1" d="M132.79,909H143.2a12.09,12.09,0,0,1,6.24,1.59,11,11,0,0,1,4.17,4.32,12.54,12.54,0,0,1,1.48,6.06v8.79a12.53,12.53,0,0,1-1.48,6.06,11,11,0,0,1-4.17,4.32,12,12,0,0,1-6.24,1.59h-2.88v18.39h-7.53ZM143,934.66a4.24,4.24,0,0,0,3.4-1.36,5.51,5.51,0,0,0,1.18-3.73v-8.35a5.51,5.51,0,0,0-1.18-3.73,4.25,4.25,0,0,0-3.4-1.36h-2.66v18.54Z"/><path class="cls-1" d="M158.34,909h24.52v7.09h-8.49v44h-7.53v-44h-8.49Z"/><path class="cls-1" d="M202.65,922.55a9.82,9.82,0,0,0-1.15-5.17,3.59,3.59,0,0,0-3.21-1.85,3.82,3.82,0,0,0-3.36,1.85,9.34,9.34,0,0,0-1.22,5.17v24.07a9.33,9.33,0,0,0,1.22,5.17,4,4,0,0,0,6.72,0,9.32,9.32,0,0,0,1.22-5.17v-3.54h7.53v3.76a14.73,14.73,0,0,1-3.36,10,11.81,11.81,0,0,1-17.5,0,14.72,14.72,0,0,1-3.36-10V922.33a14.73,14.73,0,0,1,3.36-10,11,11,0,0,1,8.75-3.88,10.74,10.74,0,0,1,8.6,3.88,15,15,0,0,1,3.29,10v3h-7.53Z"/><path class="cls-1" d="M226.43,936.43h-1.85v23.71h-7.53V909h7.53v20.31h1.92L232.34,909h8.05l-7.68,23.78,9.23,27.33H233.6Z"/><path class="cls-1" d="M244.9,922.33a15.77,15.77,0,0,1,1.59-7.16,11.91,11.91,0,0,1,4.47-4.95,13.06,13.06,0,0,1,13.15,0,11.93,11.93,0,0,1,4.47,4.95,15.81,15.81,0,0,1,1.59,7.16v24.52a15.8,15.8,0,0,1-1.59,7.16,12,12,0,0,1-4.47,5A13.08,13.08,0,0,1,251,959a11.94,11.94,0,0,1-4.47-5,15.76,15.76,0,0,1-1.59-7.16Zm8.9,29.43a4.64,4.64,0,0,0,7.46,0,8.59,8.59,0,0,0,1.37-5.14V922.55a8.58,8.58,0,0,0-1.37-5.13,4.63,4.63,0,0,0-7.46,0,8.57,8.57,0,0,0-1.37,5.13v24.07A8.58,8.58,0,0,0,253.8,951.76Z"/><path class="cls-1" d="M303,909v51.11h-7.53V930.38l-10.71,29.76h-6.72V909h7.53v29.91L296.3,909Zm-19.13-5.43a8.42,8.42,0,0,1-2.51-6.39h6.43a3.31,3.31,0,0,0,.74,2.25,2.77,2.77,0,0,0,4,0,3.32,3.32,0,0,0,.74-2.25h6.42a8.42,8.42,0,0,1-2.51,6.39,10.4,10.4,0,0,1-13.29,0Z"/><path class="cls-1" d="M323.1,909h10.41a12.09,12.09,0,0,1,6.24,1.59,11,11,0,0,1,4.17,4.32,12.54,12.54,0,0,1,1.48,6.06v8.79a12.53,12.53,0,0,1-1.48,6.06,11,11,0,0,1-4.17,4.32,12,12,0,0,1-6.24,1.59h-2.88v18.39H323.1Zm10.19,25.63a4.24,4.24,0,0,0,3.4-1.36,5.51,5.51,0,0,0,1.18-3.73v-8.35a5.51,5.51,0,0,0-1.18-3.73,4.25,4.25,0,0,0-3.4-1.36h-2.66v18.54Z"/><path class="cls-1" d="M352.64,909h20.83v7.09H360.18v13.81h10.34V937H360.18v16h13.66v7.09h-21.2Z"/><path class="cls-1" d="M395.41,922.55a9.82,9.82,0,0,0-1.15-5.17,3.59,3.59,0,0,0-3.21-1.85,3.82,3.82,0,0,0-3.36,1.85,9.34,9.34,0,0,0-1.22,5.17v24.07a9.33,9.33,0,0,0,1.22,5.17,4,4,0,0,0,6.72,0,9.32,9.32,0,0,0,1.22-5.17v-3.54h7.53v3.76a14.73,14.73,0,0,1-3.36,10,11.81,11.81,0,0,1-17.5,0,14.72,14.72,0,0,1-3.36-10V922.33a14.73,14.73,0,0,1,3.36-10,11,11,0,0,1,8.75-3.88,10.74,10.74,0,0,1,8.6,3.88,15,15,0,0,1,3.29,10v3h-7.53Z"/><path class="cls-1" d="M433.29,960.14h-7.53v-44h-8.42v44h-7.53V909h23.49Z"/><path class="cls-1" d="M465.57,909,452.2,960.14h-7.9l4.14-15.73L437.94,909h8L452,932l5.69-23Z"/><path class="cls-1" d="M487.46,929.38a11,11,0,0,1,4.17,4.32,12.54,12.54,0,0,1,1.48,6.06v8.42a12.52,12.52,0,0,1-1.48,6.06,11,11,0,0,1-4.17,4.32,12.07,12.07,0,0,1-6.24,1.59h-11V909h21v7.09H477.75v11.67h3.47A12.07,12.07,0,0,1,487.46,929.38ZM485.58,940a5.51,5.51,0,0,0-1.18-3.73,4.25,4.25,0,0,0-3.4-1.37h-3.25v18.17H481a4.25,4.25,0,0,0,3.4-1.37,5.52,5.52,0,0,0,1.18-3.73Z"/><path class="cls-1" d="M523,960.14h-7.53v-44H510q-.44,9.3-1.18,18.46t-1.4,14q-.89,5.83-3.91,8.68a10.78,10.78,0,0,1-7.68,2.84v-7.09q3.77,0,4.65-5.76,1-6.5,1.77-17.72t.89-20.53H523Z"/><path class="cls-1" d="M557.14,909v51.11h-7.53V930.38L538.9,960.14h-6.72V909h7.53v29.91L550.42,909Z"/><path class="cls-1" d="M575.68,936.43h-1.85v23.71H566.3V909h7.53v20.31h1.92L581.59,909h8.05L582,932.81l9.23,27.33h-8.35Z"/><path class="cls-1" d="M620.73,909v51.11H613.2V930.38l-10.71,29.76h-6.72V909h7.53v29.91L614,909Z"/></g></g></svg>