<svg xmlns="http://www.w3.org/2000/svg" viewBox="0 0 185.02 185.02"><defs><style>.cls-1{fill:#e82c4c;}</style></defs><title>Ресурс 6</title><g id="Слой_2" data-name="Слой 2"><g id="Слой_1-2" data-name="Слой 1"><path class="cls-1" d="M92.51,31.91A60.6,60.6,0,1,1,49.66,49.66,60.41,60.41,0,0,1,92.51,31.91Zm46.22,60.6a2.69,2.69,0,0,1,.79-1.9h0a2.69,2.69,0,0,1,3.81,0h0a2.69,2.69,0,0,1,0,3.81h0a2.69,2.69,0,0,1-3.81,0h0a2.69,2.69,0,0,1-.79-1.9Zm-97.83,0a2.69,2.69,0,0,1,.79-1.9h0a2.69,2.69,0,0,1,3.81,0h0a2.69,2.69,0,0,1,0,3.81h0a2.69,2.69,0,0,1-3.81,0h0a2.69,2.69,0,0,1-.79-1.9Zm51.61,46.22a2.69,2.69,0,0,1,1.9.79h0a2.69,2.69,0,0,1,0,3.81h0a2.69,2.69,0,0,1-3.81,0h0a2.69,2.69,0,0,1,0-3.81h0a2.69,2.69,0,0,1,1.9-.79Zm0-97.83a2.69,2.69,0,0,1,1.9.79h0a2.69,2.69,0,0,1,0,3.81h0a2.69,2.69,0,0,1-3.81,0h0a2.69,2.69,0,0,1,0-3.81h0a2.69,2.69,0,0,1,1.9-.79Zm13.19,41L95.05,92.51l10.65,10.65V81.86ZM92.51,95.05,81.86,105.7h21.3L92.51,95.05Zm-13.19,8.1L90,92.51,79.32,81.86v21.3ZM92.51,90l10.65-10.65H81.86L92.51,90Zm35,35a1.8,1.8,0,0,1-2.54,2.54L117.44,120a1.8,1.8,0,1,1,2.54-2.54l7.56,7.56ZM125,57.47A1.8,1.8,0,0,1,127.54,60L120,67.58A1.8,1.8,0,1,1,117.44,65L125,57.47ZM60,127.54A1.8,1.8,0,0,1,57.47,125L65,117.44A1.8,1.8,0,0,1,67.58,120L60,127.54ZM57.47,60A1.8,1.8,0,0,1,60,57.47L67.58,65A1.8,1.8,0,0,1,65,67.58L57.47,60ZM46.26,106.23,60,92.51,46.26,78.79a1.8,1.8,0,0,1,1.27-3.07H75.72V47.54a1.8,1.8,0,0,1,3.07-1.27L92.51,60l13.72-13.72a1.8,1.8,0,0,1,3.07,1.27V75.72h28.18a1.8,1.8,0,0,1,1.27,3.07L125,92.51l13.72,13.72a1.8,1.8,0,0,1-1.27,3.07H109.3v28.18h0a1.8,1.8,0,0,1-3.07,1.27L92.51,125,78.79,138.75a1.8,1.8,0,0,1-3.07-1.27h0V109.3H47.54a1.8,1.8,0,0,1-1.27-3.07Zm56.89,3.07H81.86l10.65,10.65,10.65-10.65ZM62.53,95.05,51.88,105.7h21.3L62.53,95.05Zm49.32,10.65h21.3L122.49,95.05,111.84,105.7Zm-60-26.38L62.53,90,73.17,79.32ZM122.49,90l10.65-10.65h-21.3L122.49,90ZM81.86,75.72h21.3L92.51,65.07,81.86,75.72ZM95.05,62.53,105.7,73.17V51.88L95.05,62.53Zm10.65,49.32L95.05,122.49l10.65,10.65v-21.3Zm-30-8.69V81.86L65.07,92.51l10.65,10.65Zm44.23-10.65L109.3,81.86v21.3l10.65-10.65Zm-30-30L79.32,51.88v21.3L90,62.53ZM79.32,111.84v21.3L90,122.49,79.32,111.84Zm-55.87,8.89a3.91,3.91,0,0,1-2.59,2.89,4.11,4.11,0,0,1-5.34-2.8l-3.87-11A.68.68,0,0,1,12,109l12.83-4.52a.68.68,0,0,1,.84.4l3.88,11a4.49,4.49,0,0,1-.14,3.46,3.94,3.94,0,0,1-2.27,1.91,4.1,4.1,0,0,1-2.33.13,3.9,3.9,0,0,1-1.4-.65Zm10.73,21.1-3.81-4.75a.88.88,0,0,1-.09-1.18l4.65-6.76a.57.57,0,0,1,.92,0l1.43,1.78a.89.89,0,0,1,.08,1.18l-3,4.25,3.17,4,4.69-2.18a.88.88,0,0,1,1.15.33l1.43,1.78a.56.56,0,0,1-.22.9l-10.07,4.44a4.91,4.91,0,0,1-3.11.47A4.49,4.49,0,0,1,29,144.49l-3.21-4a.68.68,0,0,1,.1-.92l1.74-1.4a.68.68,0,0,1,.92.1l2.78,3.46a2,2,0,0,0,.93.69,1.39,1.39,0,0,0,1-.16l.91-.42Zm19.5,19.36.91.65a.68.68,0,0,1,.15.91l-2.41,3.38a.68.68,0,0,1-.91.15l-2.11-1.5a.68.68,0,0,1-.15-.91l.73-1-8.27-5.91-.73,1a.68.68,0,0,1-.91.15l-2.11-1.5a.68.68,0,0,1-.15-.91l2.41-3.38a.68.68,0,0,1,.91-.15l.68.48,8.28-7.1a1,1,0,0,1,1.27-.06l8.49,6.06a.68.68,0,0,1,.15.91l-6.23,8.72Zm25.19,3.72-6.18,6.63a.88.88,0,0,1-1,.3l-1.91-.53a.87.87,0,0,1-.67-.75l-1.87-8.87-2.13,7.65a.68.68,0,0,1-.81.46L62,169.14a.68.68,0,0,1-.46-.81l3.65-13.11a.68.68,0,0,1,.81-.46l3.08.86a1,1,0,0,1,.7.84L72,167l7.36-7.85a1,1,0,0,1,1-.36l3.08.86a.68.68,0,0,1,.46.81l-3.65,13.11a.68.68,0,0,1-.81.46l-2.32-.65a.68.68,0,0,1-.46-.81l2.13-7.65Zm20,.1.85-5.1a.88.88,0,0,1,.92-.76l2.28-.17a.56.56,0,0,1,.62.69l-2,10.82a4.88,4.88,0,0,1-1.37,2.84,4.5,4.5,0,0,1-2.6,1l-5.11.39a.68.68,0,0,1-.7-.6l-.17-2.23a.68.68,0,0,1,.6-.7l4.43-.34a2,2,0,0,0,1.09-.38,1.39,1.39,0,0,0,.4-.88l.16-1-6.07.46a.88.88,0,0,1-1-.59l-3-7.65a.57.57,0,0,1,.51-.77l2.28-.17a.88.88,0,0,1,1,.6l1.79,4.91,5.06-.39Zm16.25.9,1.77,4.44a.68.68,0,0,1-.37.85l-2.29.91a.68.68,0,0,1-.85-.37l-5-12.64a.68.68,0,0,1,.37-.85l10.35-4.12a4.82,4.82,0,0,1,3.49,0,4.9,4.9,0,0,1,2.57,6.44,4.82,4.82,0,0,1-2.55,2.39l-7.46,3Zm21.32-18.11,6.71,8.36a.68.68,0,0,1-.1.92l-2,1.57a.68.68,0,0,1-.92-.1l-6.71-8.36L129,153.75a.68.68,0,0,1-.92-.1l-1.4-1.74a.68.68,0,0,1,.1-.92l11.82-9.49a.68.68,0,0,1,.92.1l1.4,1.74a.68.68,0,0,1-.1.92l-4.42,3.55Zm17.75-17,2.16,12.58a1.19,1.19,0,0,1-.2,1l-1.25,1.72a.68.68,0,0,1-.92.14l-11-8a.68.68,0,0,1-.14-.92l1.45-2a.68.68,0,0,1,.92-.14l7.21,5.24-2.16-12.58a1.19,1.19,0,0,1,.2-1l1.25-1.73a.68.68,0,0,1,.92-.15l11,8a.68.68,0,0,1,.14.92l-1.45,2a.68.68,0,0,1-.92.15l-7.21-5.24Zm8.66-20.94,6.47,11a1.19,1.19,0,0,1,.16,1L168.9,124a.68.68,0,0,1-.81.46L155,120.82a.68.68,0,0,1-.46-.8l.65-2.37a.68.68,0,0,1,.8-.46l8.59,2.36-6.47-11a1.19,1.19,0,0,1-.16-1l.56-2.06a.68.68,0,0,1,.8-.46l13.12,3.6a.68.68,0,0,1,.46.81l-.65,2.37a.68.68,0,0,1-.81.46l-8.59-2.36ZM18,110.89l-2,.71,2.6,7.38a1.08,1.08,0,0,0,1.37.81,1.23,1.23,0,0,0,.61-1.65L18,110.89Zm3.34-1.18,2.53,7.19a1.23,1.23,0,0,0,1.51.9,1.08,1.08,0,0,0,.56-1.49L23.4,109l-2,.71ZM50.6,159l4.55-6.37-4.23-3-6,5.3L50.6,159Zm63.2,3.63,7-2.8a1.2,1.2,0,1,0-.89-2.23l-7,2.8.89,2.23ZM34.87,47.37l1.76-1c.5-.27.88,0,1.14.44a8.66,8.66,0,0,1,.84,3,8,8,0,0,1-1.27,5,8.19,8.19,0,0,1-4.58,3.57,7.77,7.77,0,0,1-9.87-6.33,8.18,8.18,0,0,1,1.34-5.65,7.94,7.94,0,0,1,4-3.24,8.66,8.66,0,0,1,3-.47c.49.05.9.29.86.85l-.13,2c0,.52-.27.74-.77.71a5,5,0,0,0-1.9.26,4.31,4.31,0,0,0-2.15,1.72,4.49,4.49,0,0,0-.59,3.43,4.45,4.45,0,0,0,5,3.17,4.48,4.48,0,0,0,2.87-2,4.31,4.31,0,0,0,.67-2.67,5,5,0,0,0-.56-1.83.64.64,0,0,1,.32-1Zm19.69-14.9.88-.69a.68.68,0,0,1,.92.11L58.83,35a.68.68,0,0,1-.11.92l-2,1.6a.68.68,0,0,1-.92-.11l-.68-.87-8,6.28.68.87a.68.68,0,0,1-.11.92l-2,1.6a.68.68,0,0,1-.92-.11L42.24,43a.68.68,0,0,1,.11-.92l.65-.51-4.49-9.94a1,1,0,0,1,.3-1.24L47,23.93a.68.68,0,0,1,.92.11l6.62,8.43Zm9.33-10.88,9.19-3.11a.68.68,0,0,1,.83.41L74.62,21a.68.68,0,0,1-.41.83L65,24.94l.69,2,11.52-3.9a.68.68,0,0,1,.83.41l.72,2.12a.68.68,0,0,1-.41.83l-14.48,4.9a.68.68,0,0,1-.83-.41L58.7,18a.68.68,0,0,1,.41-.83l14.48-4.9a.68.68,0,0,1,.83.41l.72,2.12a.68.68,0,0,1-.41.83L63.2,19.55l.69,2Zm32.41-7.68L90.7,14,89.32,22.8a3.46,3.46,0,0,1-1,2,2.87,2.87,0,0,1-1.93.68l-2.11.05a.68.68,0,0,1-.67-.64l-.06-2.23a.68.68,0,0,1,.64-.67L85,22a.8.8,0,0,0,.83-.67l1.7-10a.83.83,0,0,1,.84-.75l11-.28a.68.68,0,0,1,.67.64l.34,13.6a.68.68,0,0,1-.64.67l-2.46.06a.68.68,0,0,1-.67-.64l-.27-10.71Zm21.75,14-7.23-2.45L110,26.8a.83.83,0,0,1-1,.42l-2.4-.81a.55.55,0,0,1-.4-.43.8.8,0,0,1,.15-.55l7.12-11.69a.88.88,0,0,1,1.06-.39L122.44,16a.88.88,0,0,1,.6,1l-1.44,13.6a.81.81,0,0,1-.21.54.55.55,0,0,1-.58.1l-2.4-.81a.82.82,0,0,1-.58-1l.21-1.58ZM135.22,29l7,5.46,3.11-4a.68.68,0,0,1,.92-.11l1.94,1.52a.68.68,0,0,1,.11.92l-8.41,10.7a.68.68,0,0,1-.92.11L137,42.1a.68.68,0,0,1-.11-.92l3.11-4-7-5.46-3.11,4a.68.68,0,0,1-.92.11l-1.94-1.52a.68.68,0,0,1-.11-.92l8.41-10.7a.68.68,0,0,1,.92-.11l1.94,1.52a.68.68,0,0,1,.11.92l-3.11,4Zm25.27,17A8.23,8.23,0,0,1,162,52a7.72,7.72,0,0,1-9,6.4A8.6,8.6,0,0,1,146.27,49a7.72,7.72,0,0,1,9-6.4A8.22,8.22,0,0,1,160.49,46ZM51.59,34.8l-4.84-6.16-4.09,3.21,3.39,7.29,5.53-4.35Zm66.92-10.51.74-5.6-3.81-1.29-2.82,4.9,5.9,2ZM157.64,48A4.21,4.21,0,0,0,155,46.25a4.55,4.55,0,0,0-5.11,3.64,4.44,4.44,0,0,0,3.47,4.87,4.55,4.55,0,0,0,5.11-3.64,4.22,4.22,0,0,0-.79-3.1ZM92.51,0A92.51,92.51,0,1,1,27.1,27.1,92.22,92.22,0,0,1,92.51,0Zm62.87,29.64a88.91,88.91,0,1,0,26,62.87,88.63,88.63,0,0,0-26-62.87ZM132.82,52.2a57,57,0,1,0,16.7,40.31,56.83,56.83,0,0,0-16.7-40.31Z"/><path class="cls-1" d="M162,70.9a1.72,1.72,0,0,1,3.28-1A75.74,75.74,0,0,1,167.87,81a76.82,76.82,0,0,1,.86,11.46,1.72,1.72,0,0,1-3.44,0,73.37,73.37,0,0,0-.82-11A72.33,72.33,0,0,0,162,70.9ZM19.74,92.51a1.72,1.72,0,0,1-3.44,0,76.82,76.82,0,0,1,.86-11.46,75.71,75.71,0,0,1,2.56-11.15,1.72,1.72,0,1,1,3.28,1,72.33,72.33,0,0,0-2.43,10.65,73.39,73.39,0,0,0-.82,10.94Z"/></g></g></svg>