<svg xmlns="http://www.w3.org/2000/svg" viewBox="0 0 1005.45 1005.45"><defs><style>.cls-1{fill:#fff;}</style></defs><title>Ресурс 241</title><g id="Слой_2" data-name="Слой 2"><g id="Слой_1-2" data-name="Слой 1"><path class="cls-1" d="M844.28,161.18A483,483,0,1,0,985.75,502.73,481.51,481.51,0,0,0,844.28,161.18ZM502.73,0A502.73,502.73,0,1,1,147.25,147.25,501.16,501.16,0,0,1,502.73,0Zm0,155.76A347,347,0,1,1,257.39,257.39,345.88,345.88,0,0,1,502.73,155.76Zm264.6,347a15.39,15.39,0,0,1,4.52-10.9h0a15.4,15.4,0,0,1,21.8,0h0a15.41,15.41,0,0,1,0,21.81v0a15.41,15.41,0,0,1-21.8,0l0,0a15.39,15.39,0,0,1-4.52-10.9Zm-560.07,0a15.39,15.39,0,0,1,4.52-10.9h0a15.4,15.4,0,0,1,21.8,0h0a15.41,15.41,0,0,1,0,21.81l0,0a15.41,15.41,0,0,1-21.8,0l0,0a15.4,15.4,0,0,1-4.52-10.9ZM502.73,767.32a15.37,15.37,0,0,1,10.9,4.53v0a15.39,15.39,0,0,1,0,21.8v0a15.41,15.41,0,0,1-21.81,0v0a15.39,15.39,0,0,1,0-21.8v0a15.36,15.36,0,0,1,10.9-4.53Zm0-560.08a15.39,15.39,0,0,1,10.9,4.52v0a15.4,15.4,0,0,1,0,21.8v0a15.42,15.42,0,0,1-21.81,0v0a15.4,15.4,0,0,1,0-21.8v0a15.39,15.39,0,0,1,10.9-4.52Zm75.53,234.52-61,61,61,61V441.76Zm-75.53,75.53-61,61H563.7l-61-61ZM427.2,563.7l61-61-61-61V563.7Zm75.53-75.54,61-61H441.76l61,61ZM703.31,688.75a10.3,10.3,0,0,1-14.56,14.57L645.45,660A10.3,10.3,0,1,1,660,645.45l43.3,43.29ZM688.75,302.14a10.3,10.3,0,0,1,14.56,14.56L660,360a10.3,10.3,0,1,1-14.57-14.56l43.3-43.3ZM316.7,703.31a10.3,10.3,0,1,1-14.56-14.57l43.3-43.29A10.3,10.3,0,1,1,360,660l-43.3,43.29ZM302.14,316.7a10.3,10.3,0,1,1,14.56-14.56l43.3,43.3A10.3,10.3,0,0,1,345.44,360l-43.3-43.3ZM238,581.27l78.55-78.55L238,424.18a10.3,10.3,0,0,1,7.28-17.58H406.6V245.24A10.3,10.3,0,0,1,424.18,238l78.55,78.55L581.27,238a10.3,10.3,0,0,1,17.58,7.28V406.6H760.21a10.3,10.3,0,0,1,7.28,17.58l-78.54,78.55,78.54,78.55a10.3,10.3,0,0,1-7.28,17.58H598.86V760.21h0a10.3,10.3,0,0,1-17.58,7.28l-78.55-78.55-78.55,78.55a10.3,10.3,0,0,1-17.58-7.28V598.85H245.24A10.3,10.3,0,0,1,238,581.27ZM563.7,598.85H441.76l61,61,61-61ZM331.07,517.29l-61,61H392l-61-61Zm282.35,61H735.35l-61-61-61,61ZM270.11,427.2l61,61,61-61Zm404.28,61,61-61H613.42l61,61ZM441.76,406.6H563.7l-61-61-61,61Zm75.53-75.53,61,61V270.1l-61,61Zm61,282.34-61,61,61,61V613.41ZM406.6,563.7V441.76l-61,61,61,61Zm253.22-61-61-61V563.7l61-61ZM488.16,331.07l-61-61V392l61-61Zm-61,282.34V735.35l61-61-61-61ZM733.5,271.95a326.37,326.37,0,1,0,95.59,230.78A325.33,325.33,0,0,0,733.5,271.95ZM86.92,323.36a3.21,3.21,0,0,1,2.4-.21l68,22.93a3.21,3.21,0,0,1,1.79,1.63h0a3.19,3.19,0,0,1,.21,2.41l-4.15,12.31a3.21,3.21,0,0,1-1.63,1.79h0a3.23,3.23,0,0,1-2.41.21L106,349.21l31,60.53h0a7.81,7.81,0,0,1,.81,2.33,5.73,5.73,0,0,1-.29,2.78L134,425.52a3.2,3.2,0,0,1-1.62,1.8h0a3.2,3.2,0,0,1-2.41.21l-68-22.92A3.2,3.2,0,0,1,60.09,403h0a3.19,3.19,0,0,1-.21-2.4L64,388.25a3.21,3.21,0,0,1,1.63-1.8h0a3.2,3.2,0,0,1,2.4-.21l45.19,15.23-31-60.53v0a7.87,7.87,0,0,1-.81-2.33,5.73,5.73,0,0,1,.29-2.78l3.59-10.66a3.21,3.21,0,0,1,1.62-1.8Zm33.65-58.07,21.85,15.56,27.38-38.47-21.85-15.55-.1-.07,0,0a3.26,3.26,0,0,1-1.12-2,3.21,3.21,0,0,1,.49-2.36l0,0,7.51-10.55a3.18,3.18,0,0,1,2.08-1.24h0a3.19,3.19,0,0,1,2.36.5l58.5,41.64a3.2,3.2,0,0,1,1.24,2.08h0a3.2,3.2,0,0,1-.5,2.36l-7.53,10.58-.07.11,0,0a3.27,3.27,0,0,1-2,1.12,3.22,3.22,0,0,1-2.36-.5l-.1-.07h0l-21.75-15.48-27.38,38.47,21.85,15.55a3.21,3.21,0,0,1,1.24,2.08h0a3.21,3.21,0,0,1-.5,2.36L172.28,322l-.07.1,0,0a3.28,3.28,0,0,1-2,1.12,3.22,3.22,0,0,1-2.36-.5l-.11-.07h0l-58.39-41.56-.1-.07,0,0a3.26,3.26,0,0,1-1.12-2,3.19,3.19,0,0,1,.49-2.36l0,0L116.13,266a3.32,3.32,0,0,1,4.44-.75Zm69.11-90.43a3.2,3.2,0,0,1,1.14-2.14l48.44-38.09a25,25,0,0,1,8.34-4.33,21.47,21.47,0,0,1,9-.76h0a19.23,19.23,0,0,1,7.23,2.61,22.23,22.23,0,0,1,6,5.37,21.45,21.45,0,0,1,3.31,5.85,21.14,21.14,0,0,1,1.23,5.45h0a19.18,19.18,0,0,1-.22,5.29,21.73,21.73,0,0,1-.79,3.1,21.17,21.17,0,0,1,9.52,1,21.54,21.54,0,0,1,9.49,6.91h0l.16.2h0a20.34,20.34,0,0,1,4.3,15.7,23.78,23.78,0,0,1-9,14.93h0l-.27.21h0l-48.33,38a3.33,3.33,0,0,1-4.48-.53L190.3,177.2a3.22,3.22,0,0,1-.61-2.34Zm75.78.45-32.14,25.27,7.32,9.31,32.67-25.69,0,0a7.3,7.3,0,0,0,2.85-4.39,5.26,5.26,0,0,0-1.08-4.17v0a5.65,5.65,0,0,0-4.27-2.18,8.21,8.21,0,0,0-5.37,1.89ZM214.78,177l7.32,9.31,31.81-25h0A8.23,8.23,0,0,0,257,156.6a5.66,5.66,0,0,0-1.08-4.74h0a5.24,5.24,0,0,0-3.81-2,7.33,7.33,0,0,0-5,1.76L214.78,177Zm107.14-69.65,4.32,11,47.92-18.78a3.33,3.33,0,0,1,4.13,1.81l4.3,11a3.24,3.24,0,0,1-.1,2.42,3.2,3.2,0,0,1-1.71,1.71L332.86,135.3l4.32,11,60-23.51,0,0h0l.2-.08h0a3.23,3.23,0,0,1,2.13.19,3.19,3.19,0,0,1,1.72,1.71l.09.24h0l4.21,10.74a3.32,3.32,0,0,1-1.81,4.12l-75.09,29.42a3.33,3.33,0,0,1-4.13-1.81l-26.09-66.59h0l-.11-.26a3.21,3.21,0,0,1,.1-2.41,3.3,3.3,0,0,1,1.42-1.58l0,0,.26-.1,75.09-29.42a3.32,3.32,0,0,1,4.13,1.81l4.2,10.71h0l.1.26a3.2,3.2,0,0,1-.1,2.41,3.3,3.3,0,0,1-1.41,1.58l0,0-.26.1-60,23.51Zm160.83-8c.65-1.56,1.34-3.23,4.76-1.83h0l9.79,3.9h0a3.48,3.48,0,0,1,2.37,3.18,6.4,6.4,0,0,1-.45,2.5l0,.05a37.37,37.37,0,0,1-3.75,6.71,51,51,0,0,1-5.32,6.56v0a39.74,39.74,0,0,1-11,7.75A46.78,46.78,0,0,1,450,131.62a41,41,0,0,1-14.05-5.92h0a39.56,39.56,0,0,1-12-12.36,41.41,41.41,0,0,1-4.21-33.72,39.46,39.46,0,0,1,8.56-14.93h0a41,41,0,0,1,12.16-9.19,46.81,46.81,0,0,1,29.11-3.87,39.49,39.49,0,0,1,12.55,4.82h0a51.11,51.11,0,0,1,6.77,5.06,36.79,36.79,0,0,1,5.28,5.58l.26.35v0c.77,1.21,2,3.65-.69,5.64h0l-8.54,6.2h0c-3,2.18-4.05.74-5.06-.61l-.05-.07a28.76,28.76,0,0,0-3.56-3.93,24.2,24.2,0,0,0-4-3h0a22.66,22.66,0,0,0-6.92-2.64,23.32,23.32,0,0,0-7.49-.28,24.22,24.22,0,0,0-9.09,3.07,23,23,0,0,0-7,6.22h0a20.47,20.47,0,0,0-3.53,7.48,26.19,26.19,0,0,0,2.16,17.3A20.46,20.46,0,0,0,446,109.3h0a23,23,0,0,0,8.33,4.31,24.4,24.4,0,0,0,9.58.73,23.28,23.28,0,0,0,7.18-2.12,22.64,22.64,0,0,0,6.07-4.26,23.84,23.84,0,0,0,3.12-3.86,28.84,28.84,0,0,0,2.49-4.68l0-.08ZM605.54,78.14,575.6,74.4l-7,56.38h0a3.21,3.21,0,0,1-1.24,2.08,3.25,3.25,0,0,1-2.21.7H565l-13.16-1.64a3.18,3.18,0,0,1-2.08-1.24h0a3.19,3.19,0,0,1-.69-2.31l7-56.39-29.93-3.74h0A3.17,3.17,0,0,1,524.1,67a3.2,3.2,0,0,1-.7-2.21v-.1L524.87,53h0a3.18,3.18,0,0,1,1.24-2.08,3.24,3.24,0,0,1,2.31-.69l79.36,9.92h0a3.23,3.23,0,0,1,2.08,1.24h0a3.2,3.2,0,0,1,.69,2.31l-1.46,11.7a3.22,3.22,0,0,1-1.25,2.08h0a3.19,3.19,0,0,1-2.31.69ZM727.4,109a3.24,3.24,0,0,1,0,2.42l-29.49,65.46h0a3.32,3.32,0,0,1-4.21,1.59l-11.85-5.34a3.31,3.31,0,0,1-1.6-4.21h0l19.59-43.47-63.28,24.94h0a7.72,7.72,0,0,1-2.4.58,5.81,5.81,0,0,1-2.74-.56l-10.26-4.62a3.2,3.2,0,0,1-1.62-1.8,3.14,3.14,0,0,1,0-2.41L649,76.08h0a3.32,3.32,0,0,1,4.21-1.59l11.85,5.34h0a3.2,3.2,0,0,1,1.62,1.8,3.16,3.16,0,0,1,0,2.41L647.09,127.5l63.28-24.94h0a7.77,7.77,0,0,1,2.41-.57,5.77,5.77,0,0,1,2.73.56l10.26,4.62a3.21,3.21,0,0,1,1.63,1.8Zm55.22,103.4-32.27-27.85-16.65,19.3a3.32,3.32,0,0,1-4.49.33l-9.84-8.49a3.32,3.32,0,0,1-.33-4.5l46.9-54.36a3.32,3.32,0,0,1,4.49-.33L815,174.88A25.27,25.27,0,0,1,823.47,191v0a24.44,24.44,0,0,1-1.13,9.87,26.44,26.44,0,0,1-12.9,15,24.47,24.47,0,0,1-9.6,2.57h0a24.94,24.94,0,0,1-9.16-1.42h0a25,25,0,0,1-8-4.63Zm-11.8-51.58-8.61,10L792.66,197a6.93,6.93,0,0,0,4.92,1.88,7,7,0,0,0,6.27-7.27,6.91,6.91,0,0,0-2.58-4.59l-30.45-26.27Zm73.53,94L860.15,277l25.57-10.16c3.23-1.37,4.9,1,5.63,2l7,9.82h0a3.51,3.51,0,0,1,.42.75h0a2.6,2.6,0,0,1,.08,1.75,2.63,2.63,0,0,1-1,1.38,3.44,3.44,0,0,1-.75.39h0l-54.4,20.39h0a38.47,38.47,0,0,1-7.59,2.06,19.75,19.75,0,0,1-8.78-.51h0a19.93,19.93,0,0,1-6.26-3.31,26.2,26.2,0,0,1-5.33-5.53l-15.64-21.91h0L799,274a3.21,3.21,0,0,1-.5-2.36h0a3.22,3.22,0,0,1,1.11-2l0,0,.11-.07,9.6-6.85a3.15,3.15,0,0,1,2.35-.5,3.21,3.21,0,0,1,2.09,1.24l13.62,19.08a13.7,13.7,0,0,0,2.47,2.65,6.7,6.7,0,0,0,2.3,1.31l.07,0a5.74,5.74,0,0,0,2.77.17,12.23,12.23,0,0,0,2.5-.75h0l5.23-2.09-18.88-26.45a6,6,0,0,1-1.11-2.27,4.21,4.21,0,0,1,1-3.64l26.46-34.19,0-.05a3.09,3.09,0,0,1,.58-.53,2.65,2.65,0,0,1,1.71-.51,2.68,2.68,0,0,1,1.63.66h0a3.24,3.24,0,0,1,.54.58l7,9.82a6,6,0,0,1,1.11,2.27,4.23,4.23,0,0,1-1,3.66l-17.44,21.66Zm100.48,146a3.2,3.2,0,0,1-1.78,1.64l-67.92,23.28h0a3.21,3.21,0,0,1-2.41-.19h0a3.21,3.21,0,0,1-1.64-1.78l-4.21-12.29a3.25,3.25,0,0,1,.2-2.41h0a3.24,3.24,0,0,1,1.78-1.64L914,391.91l-61.48-29.08h0a7.92,7.92,0,0,1-2.06-1.36,5.69,5.69,0,0,1-1.46-2.37l-3.65-10.65h0a3.23,3.23,0,0,1,.2-2.41h0a3.23,3.23,0,0,1,1.78-1.64l67.92-23.28a3.32,3.32,0,0,1,4.05,2h0l4.22,12.29a3.33,3.33,0,0,1-2,4.05l-45.1,15.46L937.84,384h0a7.68,7.68,0,0,1,2.06,1.36,5.74,5.74,0,0,1,1.47,2.38L945,398.36a3.26,3.26,0,0,1-.2,2.41ZM861,664.67a19.12,19.12,0,0,0-.82,15.85c2.42,5.63,6.88,9.69,12.32,12.41s11.36,3.86,17.27,2.43a19.79,19.79,0,0,0,13.06-26c-2.42-5.63-6.88-9.68-12.32-12.4s-11.36-3.86-17.27-2.44A19.13,19.13,0,0,0,861,664.67ZM601.21,898.72,640,888c3.86-1.07,5.93-4.28,4.85-8.17s-4.5-5.59-8.37-4.53L597.69,886l3.52,12.7ZM291.86,885.35l21-36.21-24.15-14-29.5,31.27,32.66,18.94ZM126.45,657.16,143.14,694c1.51,3.33,5,5.84,8.68,4.19,3.45-1.57,3.8-5.32,2.38-8.46l-17-37.49-10.79,4.89Zm-16.55,7.48-10.79,4.88,17.13,37.86c1.42,3.13,4.49,5.35,7.93,3.79,3.65-1.65,4.1-5.95,2.59-9.29l-16.86-37.25Zm743.33,46.5,2.63-5.26a38.22,38.22,0,0,1-13.34-18.25c-3.65-10.52-2.48-21.08,2.47-31,4.85-9.69,12.78-17.27,23.18-20.61,10.15-3.25,21.85-1.76,31.3,3s17.65,13.2,21.13,23.28c3.57,10.32,2.26,21.22-2.59,30.91-5,9.92-12.68,17.16-23.31,20.55a38.36,38.36,0,0,1-22.61.27l-2.63,5.25,24,12a3.32,3.32,0,0,1,1.42,4.28l-5.81,11.62a3.33,3.33,0,0,1-4.28,1.42l-64.21-32.13a3.32,3.32,0,0,1-1.42-4.27L825,700.57a3.32,3.32,0,0,1,4.28-1.43l24,12Zm-39.83,51.25,2.21,68a6,6,0,0,1-1.71,4.84l-7.8,8.11a3.33,3.33,0,0,1-4.51.09l-51.74-49.79a3.33,3.33,0,0,1-.09-4.51l9-9.36a3.31,3.31,0,0,1,4.5-.09l34.35,33.06-2.21-68a6,6,0,0,1,1.71-4.85l7.8-8.1a3.31,3.31,0,0,1,4.51-.09l51.74,49.78a3.33,3.33,0,0,1,.09,4.52l-9,9.36a3.31,3.31,0,0,1-4.5.09l-34.35-33.06Zm-96.5,72,30.39,48a3.32,3.32,0,0,1-1,4.4l-11.21,7.1a3.32,3.32,0,0,1-4.4-1l-30.39-48-25.49,16.14a3.32,3.32,0,0,1-4.4-1l-6.3-10a3.31,3.31,0,0,1,1-4.4L732.68,803a3.32,3.32,0,0,1,4.4,1l6.3,10a3.33,3.33,0,0,1-1,4.41L716.9,834.43Zm-110.84,81.8,6.8,24.56a3.32,3.32,0,0,1-2.22,3.92l-12.52,3.48a3.34,3.34,0,0,1-3.93-2.23L575,876.76a3.31,3.31,0,0,1,2.22-3.92l56.67-15.71A25.13,25.13,0,0,1,652.05,859a25.55,25.55,0,0,1,9.67,34.89,25.17,25.17,0,0,1-14.58,11l-41.08,11.38Zm-75.44-7.61,5.62-26.92c.48-2.6,2.37-3.53,4.77-3.62l12-.43a2.69,2.69,0,0,1,2.87,3.43l-13,56.63c-1.24,5.41-3.32,10.88-7.72,14.52A23.45,23.45,0,0,1,521.45,957l-27,1a3.33,3.33,0,0,1-3.3-3.08l-.42-11.78a3.32,3.32,0,0,1,3.07-3.31l23.43-.84c1.79-.06,4.58-.6,6-1.83a7.56,7.56,0,0,0,2.41-4.7l1.14-5.52-32.46,1.17c-2.44.08-4.2-.69-5-3.18l-13.95-41a2.74,2.74,0,0,1,2.62-3.6l12.05-.43c2.44-.09,4.2.69,5,3.2l8.45,26.48,27.16-1Zm-97.71-2.73L401,943a4.36,4.36,0,0,1-4.77,1.7l-10.17-2.39a4.33,4.33,0,0,1-3.51-3.61l-12.05-47.47-9.82,41.84a3.33,3.33,0,0,1-3.83,2.38l-12.39-2.9a3.33,3.33,0,0,1-2.38-3.84l16.4-69.9a3.32,3.32,0,0,1,3.84-2.37l16.43,3.85a5,5,0,0,1,3.68,4.07L396.7,919.9l37.46-43.38a5,5,0,0,1,5.12-2l16.43,3.86a3.33,3.33,0,0,1,2.38,3.84l-16.4,69.9a3.32,3.32,0,0,1-3.83,2.37l-12.39-2.9a3.32,3.32,0,0,1-2.38-3.83l9.82-41.84ZM308.62,895.07l5.35,3.11a3.32,3.32,0,0,1,1.16,4.36l-10.93,18.68a3.32,3.32,0,0,1-4.36,1.17L288,915.52a3.32,3.32,0,0,1-1.16-4.36l3.42-5.73-46.87-27.17L240.66,883a3.32,3.32,0,0,1-4.36,1.16l-11.82-6.85a3.33,3.33,0,0,1-1.16-4.36l10.26-17.7a3.32,3.32,0,0,1,4.36-1.16l4,2.31L282,814.82a4.91,4.91,0,0,1,6.33-.88L336,841.56a3.32,3.32,0,0,1,1.16,4.35l-28.5,49.16Zm-101.23-86.4L185.14,785c-1.67-1.78-2.25-3.62-.9-5.84l21.66-37.48a2.74,2.74,0,0,1,4.44-.4l8.26,8.78c1.67,1.77,2.25,3.62.89,5.86l-14.37,23.81,18.62,19.79,24-13.49c2.26-1.35,4.22-.54,5.86,1.2l8.26,8.79a2.69,2.69,0,0,1-.69,4.42L209.94,828c-4.87,2.63-10.4,4.67-16,3.75a23.45,23.45,0,0,1-12.67-7.21l-18.54-19.71a3.33,3.33,0,0,1,.14-4.51l8.59-8.08a3.33,3.33,0,0,1,4.51.15L192,809.42c1.23,1.3,3.46,3,5.33,3.3a7.59,7.59,0,0,0,5.13-1.28l4.91-2.77Zm-64.93-94.82a20.37,20.37,0,0,1-12.21,16.57c-11.85,5.58-23.83-.68-29-12.13l-25.35-56a3.31,3.31,0,0,1,1.59-4.22l65.41-29.61a3.32,3.32,0,0,1,4.22,1.59l25.41,56.14c2.52,5.57,3.1,12.3.8,18a20.53,20.53,0,0,1-10.9,10.93,21.25,21.25,0,0,1-12.07,1.7,20.47,20.47,0,0,1-7.9-3Zm-40-142.21A9.84,9.84,0,1,1,83.06,575a427,427,0,0,1-5.54-50.45,432.76,432.76,0,0,1,.42-50.85A9.84,9.84,0,1,1,97.56,475a413.18,413.18,0,0,0-.42,48.62,407.9,407.9,0,0,0,5.31,48.06Zm805.25-99.29A9.84,9.84,0,0,1,927.34,471a432.71,432.71,0,0,1-5.39,106.65,9.85,9.85,0,0,1-19.4-3.39,408.84,408.84,0,0,0,5.16-101.87Zm44-107.13L955,375a2.85,2.85,0,0,1-1.48,3.58l-.34.13-3.29,1.13a10.29,10.29,0,0,1-13.07-6.4l-8.57-25,0-.09a10.25,10.25,0,0,1-.46-4.74,10.36,10.36,0,0,1,1.85-4.62,10.08,10.08,0,0,1,1.33-1.51,10.3,10.3,0,0,1,3.68-2.2l3.29-1.13a2.84,2.84,0,0,1,3.71,1.82l3.35,9.76a3,3,0,0,1-1.82,3.71l-.38.13c-.95.32-.42,2.95-.19,3.64l2.61,7.6c.24.7,1.42,3.07,2.39,2.75l.38-.13a3,3,0,0,1,3.71,1.82Z"/></g></g></svg>