<svg xmlns="http://www.w3.org/2000/svg" viewBox="0 0 1010 446.38"><defs><style>.cls-1{fill:#1d1d1b;}</style></defs><title>Ресурс 151</title><g id="Слой_2" data-name="Слой 2"><g id="Слой_1-2" data-name="Слой 1"><path class="cls-1" d="M166.14,306.8v92.1l46.05-46.05L166.14,306.8ZM212.19,93.53,166.14,47.48v92.1l46.05-46.05ZM341.85,223.19,295.8,177.14v92.1l46.05-46.05ZM150.58,269.24v-92.1l-46.05,46.05,46.05,46.05ZM280.24,306.8l-46.05,46.05,46.05,46.05V306.8ZM234.19,93.53l46.05,46.05V47.48L234.19,93.53Zm-57.05,57.05h92.1l-46.05-46.05-46.05,46.05Zm175.71,61.61,46.05-46.05H306.8l46.05,46.05ZM47.48,166.14l46.05,46.05,46.05-46.05ZM306.8,280.24h92.1l-46.05-46.05L306.8,280.24ZM93.53,234.19,47.48,280.24h92.1L93.53,234.19ZM269.24,295.8h-92.1l46.05,46.05,46.05-46.05Zm-246-13.28,59.33-59.33L23.2,163.86a7.78,7.78,0,0,1,5.5-13.28H150.58V28.7a7.78,7.78,0,0,1,13.28-5.5l59.33,59.33L282.52,23.2a7.78,7.78,0,0,1,13.28,5.5V150.58H417.68a7.78,7.78,0,0,1,5.5,13.28l-59.33,59.33,59.33,59.33a7.78,7.78,0,0,1-5.5,13.28H295.8V417.68h0a7.78,7.78,0,0,1-13.28,5.5l-59.33-59.33-59.33,59.33a7.78,7.78,0,0,1-13.28-5.5h0V295.8H28.7a7.78,7.78,0,0,1-5.5-13.28ZM71.68,82.68a7.78,7.78,0,1,1,11-11l32.71,32.71a7.78,7.78,0,0,1-11,11L71.68,82.68Zm11,292a7.78,7.78,0,1,1-11-11L104.38,331a7.78,7.78,0,0,1,11,11L82.68,374.7Zm281-303a7.78,7.78,0,1,1,11,11L342,115.38a7.78,7.78,0,1,1-11-11L363.7,71.68Zm11,292a7.78,7.78,0,1,1-11,11L331,342a7.78,7.78,0,0,1,11-11L374.7,363.7ZM223.19,212.19l46.05-46.05h-92.1l46.05,46.05Zm-57.05,57.05,46.05-46.05-46.05-46.05v92.1Zm57.05-35-46.05,46.05h92.1l-46.05-46.05Zm57.05-57.05-46.05,46.05,46.05,46.05v-92.1ZM223.19,0a11.62,11.62,0,0,1,8.23,3.42h0a11.63,11.63,0,0,1,0,16.47h0a11.64,11.64,0,0,1-16.47,0h0a11.63,11.63,0,0,1,0-16.47h0A11.62,11.62,0,0,1,223.19,0Zm0,423a11.62,11.62,0,0,1,8.23,3.42h0a11.63,11.63,0,0,1,0,16.47h0A11.64,11.64,0,0,1,215,443h0a11.63,11.63,0,0,1,0-16.47h0a11.62,11.62,0,0,1,8.23-3.42ZM0,223.19A11.62,11.62,0,0,1,3.42,215h0a11.63,11.63,0,0,1,16.47,0h0a11.64,11.64,0,0,1,0,16.47h0a11.63,11.63,0,0,1-16.47,0h0A11.62,11.62,0,0,1,0,223.19Zm423,0a11.62,11.62,0,0,1,3.42-8.23h0a11.63,11.63,0,0,1,16.47,0h0a11.63,11.63,0,0,1,0,16.47h0a11.63,11.63,0,0,1-16.47,0h0a11.62,11.62,0,0,1-3.42-8.23Z"/><path class="cls-1" d="M530.48,164.56h-3.05v39.18H515V119.27h12.45v33.57h3.17l9.64-33.57h13.31l-12.7,39.31,15.26,45.17h-13.8Z"/><path class="cls-1" d="M561,141.25a26.08,26.08,0,0,1,2.63-11.84,19.72,19.72,0,0,1,7.38-8.18,21.61,21.61,0,0,1,21.73,0,19.76,19.76,0,0,1,7.39,8.18,26.14,26.14,0,0,1,2.62,11.84v40.53a26.13,26.13,0,0,1-2.62,11.84,19.75,19.75,0,0,1-7.39,8.18,21.62,21.62,0,0,1-21.73,0,19.71,19.71,0,0,1-7.38-8.18A26.07,26.07,0,0,1,561,181.78Zm14.71,48.65a7.66,7.66,0,0,0,12.33,0q2.26-3.12,2.26-8.49v-39.8q0-5.37-2.26-8.48a7.66,7.66,0,0,0-12.33,0q-2.26,3.11-2.26,8.48v39.8Q573.45,186.78,575.71,189.89Z"/><path class="cls-1" d="M615.81,119.27H633a20,20,0,0,1,10.31,2.62,18.21,18.21,0,0,1,6.9,7.14,20.72,20.72,0,0,1,2.44,10v14.53a20.72,20.72,0,0,1-2.44,10,18.17,18.17,0,0,1-6.9,7.14A19.92,19.92,0,0,1,633,173.35h-4.76v30.4H615.81Zm16.85,42.36a7,7,0,0,0,5.62-2.26,9.11,9.11,0,0,0,2-6.17V139.42a9.12,9.12,0,0,0-2-6.17,7,7,0,0,0-5.62-2.26h-4.39v30.64Z"/><path class="cls-1" d="M703.46,203.75H691V131H677.1v72.76H664.64V119.27h38.82Z"/><path class="cls-1" d="M716.53,141.25a26.08,26.08,0,0,1,2.63-11.84,19.72,19.72,0,0,1,7.38-8.18,21.61,21.61,0,0,1,21.73,0,19.76,19.76,0,0,1,7.39,8.18,26.14,26.14,0,0,1,2.62,11.84v40.53a26.13,26.13,0,0,1-2.62,11.84,19.75,19.75,0,0,1-7.39,8.18,21.62,21.62,0,0,1-21.73,0,19.71,19.71,0,0,1-7.38-8.18,26.07,26.07,0,0,1-2.63-11.84Zm14.71,48.65a7.66,7.66,0,0,0,12.33,0q2.26-3.12,2.26-8.49v-39.8q0-5.37-2.26-8.48a7.66,7.66,0,0,0-12.33,0q-2.26,3.11-2.26,8.48v39.8Q729,186.78,731.24,189.89Z"/><path class="cls-1" d="M771.34,119.27h17.22a20,20,0,0,1,10.31,2.62,18.21,18.21,0,0,1,6.9,7.14,20.72,20.72,0,0,1,2.44,10v14.53a20.72,20.72,0,0,1-2.44,10,18.17,18.17,0,0,1-6.9,7.14,19.92,19.92,0,0,1-10.31,2.63h-4.76v30.4H771.34Zm16.85,42.36a7,7,0,0,0,5.62-2.26,9.11,9.11,0,0,0,2-6.17V139.42a9.12,9.12,0,0,0-2-6.17,7,7,0,0,0-5.62-2.26h-4.39v30.64Z"/><path class="cls-1" d="M827,119.27h11l17.58,84.48H842.51l-3.3-18.92H825.78l-3.3,18.92H809.43Zm10.26,53.84-4.76-27.59-4.76,27.59Z"/><path class="cls-1" d="M863.26,119.27h12.45V192h13.92V119.27h12.45V192h6.23v23.81H895.86V203.75h-32.6Z"/><path class="cls-1" d="M959.34,119.27v84.48H946.89v-49.2l-17.7,49.2H918.07V119.27h12.45v49.44l17.7-49.44Z"/><path class="cls-1" d="M1010,119.27v84.48H997.55V172.13h-3.42L982.9,203.75H969.1l13.79-33.69a17.11,17.11,0,0,1-7.63-7.08,20.87,20.87,0,0,1-2.75-10.62V139A20.7,20.7,0,0,1,975,129a18.21,18.21,0,0,1,6.9-7.14,20,20,0,0,1,10.31-2.62ZM997.55,131h-5a7,7,0,0,0-5.62,2.26,9.1,9.1,0,0,0-2,6.17V152a9.1,9.1,0,0,0,2,6.17,7,7,0,0,0,5.62,2.26h5Z"/><path class="cls-1" d="M515,241h17.22a20,20,0,0,1,10.31,2.62,18.21,18.21,0,0,1,6.9,7.14,20.72,20.72,0,0,1,2.44,10v14.53a20.72,20.72,0,0,1-2.44,10,18.17,18.17,0,0,1-6.9,7.14,19.92,19.92,0,0,1-10.31,2.63h-4.76v30.4H515Zm16.85,42.36a7,7,0,0,0,5.62-2.26,9.11,9.11,0,0,0,2-6.17V261.18a9.12,9.12,0,0,0-2-6.17,7,7,0,0,0-5.62-2.26h-4.39V283.4Z"/><path class="cls-1" d="M570.64,241h11l17.58,84.48H586.15l-3.3-18.92H569.42l-3.3,18.92H553.06Zm10.26,53.84-4.76-27.59-4.76,27.59Z"/><path class="cls-1" d="M641.57,295.37v11.35a20.71,20.71,0,0,1-2.44,10,18.31,18.31,0,0,1-6.84,7.14,19.42,19.42,0,0,1-10.13,2.62q-9,0-14.16-6.29t-5.13-16.66v-6.23h12.45v5.86q0,11.6,6.84,11.6a6.2,6.2,0,0,0,5.06-2.32,9.35,9.35,0,0,0,1.89-6.1V295.73a9.12,9.12,0,0,0-2-6.16,7,7,0,0,0-5.62-2.26h-7.81V275.59h6.84a7,7,0,0,0,5.62-2.26,9.11,9.11,0,0,0,2-6.17v-7a10.27,10.27,0,0,0-1.65-6.17,5.35,5.35,0,0,0-4.58-2.26,5,5,0,0,0-4.7,2.81q-1.53,2.81-1.53,8.79V268H603.24v-5q0-10.26,4.94-16.6t13.73-6.35a18.28,18.28,0,0,1,9.77,2.63,17.73,17.73,0,0,1,6.59,7.14,21.6,21.6,0,0,1,2.32,10v7.69a15.25,15.25,0,0,1-2.2,8.42,12.7,12.7,0,0,1-6.23,5Q641.57,284.38,641.57,295.37Z"/><path class="cls-1" d="M692.36,295.61v10.13a20.72,20.72,0,0,1-2.44,10,18.17,18.17,0,0,1-6.9,7.14,19.94,19.94,0,0,1-10.31,2.62H653.53V241h17.34a20,20,0,0,1,10.31,2.62,18.21,18.21,0,0,1,6.9,7.14,20.72,20.72,0,0,1,2.44,10v7a15.12,15.12,0,0,1-2.2,8.55,11.79,11.79,0,0,1-5.74,4.64Q692.35,284.62,692.36,295.61ZM666,252.76v23.07h4.52a7,7,0,0,0,5.62-2.26,9.1,9.1,0,0,0,2-6.16v-6.23a9.12,9.12,0,0,0-2-6.17,7,7,0,0,0-5.62-2.26ZM679.9,296a9.12,9.12,0,0,0-2-6.17,7,7,0,0,0-5.62-2.26H666V313.8h6.35a7,7,0,0,0,5.62-2.26,9.11,9.11,0,0,0,2-6.17Z"/><path class="cls-1" d="M745.58,241v84.48H733.13v-49.2l-17.7,49.2H704.32V241h12.45v49.44L734.47,241Z"/><path class="cls-1" d="M754.74,241h40.53v11.72h-14v72.76H768.77V252.76h-14Z"/><path class="cls-1" d="M845.68,241v84.48H833.23v-49.2l-17.7,49.2H804.42V241h12.45v49.44L834.57,241Z"/><path class="cls-1" d="M896.34,241v84.48H883.89V293.9h-3.42l-11.23,31.62H855.45l13.79-33.69a17.11,17.11,0,0,1-7.63-7.08,20.87,20.87,0,0,1-2.75-10.62V260.82a20.7,20.7,0,0,1,2.44-10,18.21,18.21,0,0,1,6.9-7.14A20,20,0,0,1,878.52,241Zm-12.45,11.72h-5a7,7,0,0,0-5.62,2.26,9.1,9.1,0,0,0-2,6.17v12.57a9.1,9.1,0,0,0,2,6.17,7,7,0,0,0,5.62,2.26h5Z"/><path class="cls-1" d="M534.67,362.85l-10.71,41h-6.33l3.32-12.61-8.41-28.35h6.39l4.85,18.41,4.56-18.41Z"/><path class="cls-1" d="M558.34,398.13v11.54h-6v-5.86H539v5.86h-6V398.13h2.37a11.37,11.37,0,0,0,1.42-4.62q.77-5.21,1.42-14.21t.71-16.45h16.45v35.28Zm-9.06,0V368.54h-4.91q-.36,7.46-.95,14.8t-1.12,11.25a13.91,13.91,0,0,1-.95,3.55Z"/><path class="cls-1" d="M589.36,362.85v41h-6V380.43l-5.8,17.22h-2.6l-5.8-17.22v23.38h-6v-41h5.39l7.75,23.5,7.75-23.5Z"/><path class="cls-1" d="M615.22,362.85l-10.71,41h-6.33l3.32-12.61-8.41-28.35h6.39l4.85,18.41,4.56-18.41Z"/><path class="cls-1" d="M618.95,362.85h8.35a9.69,9.69,0,0,1,5,1.27,8.84,8.84,0,0,1,3.34,3.46,10.05,10.05,0,0,1,1.18,4.85v7a10,10,0,0,1-1.18,4.85,8.81,8.81,0,0,1-3.34,3.46,9.65,9.65,0,0,1-5,1.27H625v14.74h-6Zm8.17,20.54a3.4,3.4,0,0,0,2.72-1.09,4.42,4.42,0,0,0,.95-3v-6.69a4.42,4.42,0,0,0-.95-3,3.41,3.41,0,0,0-2.72-1.09H625v14.85Z"/><path class="cls-1" d="M639.43,362.85h19.65v5.68h-6.81v35.27h-6V368.54h-6.81Z"/><path class="cls-1" d="M674.94,373.69a7.87,7.87,0,0,0-.92-4.14,2.88,2.88,0,0,0-2.57-1.48,3.06,3.06,0,0,0-2.69,1.48,7.48,7.48,0,0,0-1,4.14V393a7.48,7.48,0,0,0,1,4.14,3.19,3.19,0,0,0,5.39,0,7.47,7.47,0,0,0,1-4.14v-2.84h6v3a11.81,11.81,0,0,1-2.69,8,9.47,9.47,0,0,1-14,0,11.8,11.8,0,0,1-2.69-8V373.51a11.8,11.8,0,0,1,2.69-8,8.84,8.84,0,0,1,7-3.11,8.61,8.61,0,0,1,6.9,3.11,12,12,0,0,1,2.63,8v2.43h-6Z"/><path class="cls-1" d="M694,384.81h-1.48v19h-6v-41h6v16.28h1.54l4.68-16.28h6.45L699,381.91l7.4,21.9h-6.69Z"/><path class="cls-1" d="M708.8,373.51a12.64,12.64,0,0,1,1.27-5.74,9.55,9.55,0,0,1,3.58-4,10.47,10.47,0,0,1,10.54,0,9.56,9.56,0,0,1,3.58,4,12.67,12.67,0,0,1,1.27,5.74v19.65a12.66,12.66,0,0,1-1.27,5.74,9.58,9.58,0,0,1-3.58,4,10.48,10.48,0,0,1-10.54,0,9.57,9.57,0,0,1-3.58-4,12.63,12.63,0,0,1-1.27-5.74Zm7.13,23.59a3.72,3.72,0,0,0,6,0A6.88,6.88,0,0,0,723,393V373.69a6.88,6.88,0,0,0-1.09-4.11,3.71,3.71,0,0,0-6,0,6.87,6.87,0,0,0-1.1,4.11V393A6.88,6.88,0,0,0,715.93,397.1Z"/><path class="cls-1" d="M755.38,362.85v41h-6V380l-8.58,23.85h-5.39v-41h6v24l8.58-24ZM740,358.5a6.75,6.75,0,0,1-2-5.12h5.15a2.65,2.65,0,0,0,.59,1.81,2.22,2.22,0,0,0,3.2,0,2.66,2.66,0,0,0,.59-1.81h5.15a6.75,6.75,0,0,1-2,5.12,8.34,8.34,0,0,1-10.65,0Z"/><path class="cls-1" d="M771.47,362.85h8.35a9.69,9.69,0,0,1,5,1.27,8.84,8.84,0,0,1,3.34,3.46,10.05,10.05,0,0,1,1.18,4.85v7a10,10,0,0,1-1.18,4.85,8.81,8.81,0,0,1-3.34,3.46,9.65,9.65,0,0,1-5,1.27h-2.31v14.74h-6Zm8.17,20.54a3.4,3.4,0,0,0,2.72-1.09,4.42,4.42,0,0,0,.95-3v-6.69a4.42,4.42,0,0,0-.95-3,3.41,3.41,0,0,0-2.72-1.09h-2.13v14.85Z"/><path class="cls-1" d="M795.15,362.85h16.69v5.68H801.19V379.6h8.29v5.68h-8.29v12.85h10.95v5.68h-17Z"/><path class="cls-1" d="M829.42,373.69a7.87,7.87,0,0,0-.92-4.14,2.88,2.88,0,0,0-2.57-1.48,3.06,3.06,0,0,0-2.69,1.48,7.48,7.48,0,0,0-1,4.14V393a7.48,7.48,0,0,0,1,4.14,3.19,3.19,0,0,0,5.39,0,7.47,7.47,0,0,0,1-4.14v-2.84h6v3a11.81,11.81,0,0,1-2.69,8,9.47,9.47,0,0,1-14,0,11.8,11.8,0,0,1-2.69-8V373.51a11.8,11.8,0,0,1,2.69-8,8.84,8.84,0,0,1,7-3.11,8.61,8.61,0,0,1,6.9,3.11,12,12,0,0,1,2.63,8v2.43h-6Z"/><path class="cls-1" d="M859.78,403.81h-6V368.54H847v35.27h-6v-41h18.82Z"/><path class="cls-1" d="M885.65,362.85l-10.71,41H868.6l3.32-12.61-8.41-28.35h6.39l4.85,18.41,4.56-18.41Z"/><path class="cls-1" d="M903.2,379.16a8.83,8.83,0,0,1,3.34,3.46,10,10,0,0,1,1.18,4.86v6.75a10,10,0,0,1-1.18,4.85,8.82,8.82,0,0,1-3.34,3.46,9.67,9.67,0,0,1-5,1.27h-8.82v-41h16.81v5.68H895.41v9.35h2.78A9.67,9.67,0,0,1,903.2,379.16Zm-1.51,8.49a4.42,4.42,0,0,0-.95-3,3.4,3.4,0,0,0-2.72-1.1h-2.6v14.56H898a3.4,3.4,0,0,0,2.72-1.1,4.42,4.42,0,0,0,.95-3Z"/><path class="cls-1" d="M931.7,403.81h-6V368.54h-4.44q-.36,7.46-.95,14.8t-1.12,11.25q-.71,4.67-3.14,7a8.64,8.64,0,0,1-6.16,2.28v-5.68q3,0,3.73-4.62.77-5.21,1.42-14.21t.71-16.45h16Z"/><path class="cls-1" d="M959,362.85v41h-6V380l-8.58,23.85H939v-41h6v24l8.58-24Z"/><path class="cls-1" d="M973.9,384.81h-1.48v19h-6v-41h6v16.28H974l4.68-16.28h6.45l-6.16,19.06,7.4,21.9h-6.69Z"/><path class="cls-1" d="M1010,362.85v41h-6V380l-8.58,23.85H990v-41h6v24l8.58-24Z"/></g></g></svg>